<svg id="Capa_1" enable-background="new 0 0 497.958 497.958" height="512" viewBox="0 0 497.958 497.958" width="512" xmlns="http://www.w3.org/2000/svg"><g><g fill="#eeefee"><path d="m84.709 261.215h70.66v4.827h-70.66z" transform="matrix(.5 -.866 .866 .5 -168.29 235.771)"/><path d="m101.67 278.184h70.66v4.827h-70.66z" transform="matrix(.866 -.5 .5 .866 -121.944 106.093)"/><path d="m107.884 301.353h70.66v4.827h-70.66z"/><path d="m134.591 291.608h4.826v70.66h-4.826z" transform="matrix(.5 -.866 .866 .5 -214.634 282.118)"/><path d="m117.631 308.573h4.826v70.66h-4.826z" transform="matrix(.866 -.5 .5 .866 -155.869 106.097)"/><path d="m94.46 314.783h4.826v70.66h-4.826z"/><path d="m38.368 341.496h70.66v4.827h-70.66z" transform="matrix(.5 -.866 .866 .5 -260.985 235.779)"/><path d="m21.399 324.526h70.658v4.826h-70.658z" transform="matrix(.866 -.5 .5 .866 -155.873 72.169)"/><path d="m15.191 301.359h70.66v4.827h-70.66z"/><path d="m54.314 245.273h4.826v70.66h-4.826z" transform="matrix(.5 -.866 .866 .5 -214.645 189.429)"/><path d="m71.273 228.297h4.826v70.658h-4.826z" transform="matrix(.866 -.5 .5 .866 -121.944 72.165)"/><path d="m94.448 222.089h4.826v70.66h-4.826z"/><path d="m389.014 261.22h70.66v4.827h-70.66z" transform="matrix(.5 -.866 .866 .5 -16.141 499.31)"/><path d="m405.979 278.176h70.66v4.827h-70.66z" transform="matrix(.866 -.5 .5 .866 -81.17 258.247)"/><path d="m412.19 301.353h70.66v4.827h-70.66z"/><path d="m438.906 291.602h4.827v70.66h-4.827z" transform="matrix(.5 -.866 .866 .5 -62.472 545.659)"/><path d="m421.94 308.571h4.827v70.66h-4.827z" transform="matrix(.866 -.5 .5 .866 -115.098 258.251)"/><path d="m398.772 314.783h4.827v70.66h-4.827z"/><path d="m342.674 341.501h70.66v4.827h-70.66z" transform="matrix(.5 -.866 .866 .5 -108.836 499.318)"/><path d="m325.712 324.529h70.66v4.827h-70.66z" transform="matrix(.866 -.5 .5 .866 -115.101 224.323)"/></g><path d="m319.497 301.359h70.66v4.827h-70.66z" fill="#dbd8dd"/><path d="m358.623 245.267h4.827v70.66h-4.827z" fill="#eeefee" transform="matrix(.5 -.866 .866 .5 -62.486 452.965)"/><path d="m375.577 228.294h4.826v70.658h-4.826z" fill="#dbd8dd" transform="matrix(.866 -.5 .5 .866 -81.171 224.32)"/><path d="m398.76 222.089h4.827v70.66h-4.827z" fill="#eeefee"/><path d="m250.171 308.539 12.143-10.791-7.263-8.094-4.981 11.936c-.952 2.226-.915 4.752.101 6.949z" fill="#bbbbcd"/><path d="m96.814 206.94c53.495-.026 96.883 43.319 96.909 96.814s-43.319 96.883-96.814 96.909c-53.493.027-96.88-43.315-96.909-96.808-.013-53.491 43.324-96.873 96.814-96.915zm0 173.943c42.6.056 77.18-34.434 77.235-77.034.056-42.6-34.434-77.18-77.034-77.235-42.6-.056-77.18 34.434-77.235 77.034v.213c.052 42.52 34.508 76.976 77.028 77.028z" fill="#575b6d"/><path d="m401.073 206.934c53.479-.029 96.856 43.3 96.885 96.779s-43.3 96.856-96.779 96.885-96.856-43.3-96.885-96.779c-.007-53.469 43.309-96.833 96.779-96.885zm0 173.973c42.6.092 77.209-34.368 77.301-76.969.092-42.6-34.368-77.209-76.969-77.301-42.6-.092-77.209 34.368-77.301 76.969v.219c.078 42.492 34.471 76.938 76.963 77.081h.006z" fill="#575b6d"/><path d="m109.42 167.747c3.646 1.465 7.79-.304 9.255-3.95.023-.057.045-.114.066-.171l1.518-4.038c1.353-3.557-.332-7.549-3.824-9.06l-.362-.16c-7.548-2.852-11.356-11.282-8.504-18.83 2.149-5.689 7.598-9.452 13.68-9.447h11.746v-18.5h-11.746c-15.463-.062-28.9 10.61-32.339 25.686-3.641 16.134 5.085 32.502 20.51 38.47z" fill="#575b6d"/><path d="m250.07 301.59 4.981-11.936 7.263 8.094-12.143 10.791c-1.016-2.197-1.053-4.723-.101-6.949z" fill="#bbbbcd"/><path d="m150.457 122.091h-17.432v-18.488h30.4c4.87-.24 9.013 3.514 9.252 8.384.063 1.283-.154 2.564-.637 3.754l-9.754 28.123h153.57l13.181-31.645 17.017 7.056-13.045 31.544 78.487 150.042c1.545 2.83 1.466 6.268-.208 9.024-1.655 2.777-4.654 4.472-7.886 4.459h-144.723c-3.073.009-5.95-1.509-7.678-4.05-.381-.539-.662-1.141-.83-1.779l-1.66 1.453-103.556-116.399-39.323 113.31-17.539-6.119zm237.618 173.789-64.333-122.856-51.259 122.856zm-133.024-6.226 53.127-127.321h-152.325l-3.943 11.414z" fill="#ef5261"/><path d="m401.078 325.467c11.972.062 21.728-9.593 21.79-21.565s-9.593-21.728-21.565-21.79-21.728 9.593-21.79 21.565v.219c.078 11.879 9.687 21.491 21.565 21.571z" fill="#62667c"/><path d="m401.073 313.295c5.263.053 9.576-4.165 9.641-9.428-.007-5.32-4.321-9.629-9.641-9.629-5.256.065-9.468 4.373-9.416 9.629.003 5.201 4.215 9.418 9.416 9.428z" fill="#dbd8dd"/><path d="m96.755 326.138c12.355.065 22.424-9.898 22.489-22.253s-9.898-22.424-22.253-22.489-22.424 9.897-22.489 22.253v.225c.078 12.258 9.994 22.179 22.253 22.264z" fill="#62667c"/><path d="m96.755 313.988c5.645.056 10.27-4.47 10.335-10.115-.007-5.704-4.631-10.326-10.335-10.329-5.63.081-10.136 4.698-10.08 10.329.003 5.571 4.509 10.092 10.08 10.115z" fill="#dbd8dd"/><path d="m222.789 305.047c-.105 19.802 15.863 35.939 35.664 36.044 19.802.105 35.939-15.863 36.044-35.664.105-19.802-15.863-35.939-35.664-36.044-.063 0-.126 0-.189 0-19.748-.05-35.799 15.916-35.855 35.664z" fill="#62667c"/><path d="m237.073 305.082c-.062 11.913 9.545 21.621 21.458 21.683s21.621-9.545 21.683-21.458-9.545-21.621-21.458-21.683c-.037 0-.075 0-.112 0-11.882-.029-21.538 9.577-21.571 21.458z" fill="#dbd8dd"/><path d="m284.549 126.882c0 2.436 1.975 4.411 4.411 4.411h70.109c9.388 0 16.999-7.611 16.999-16.999 0-9.389-7.611-16.999-16.999-16.999h-44.933c-16.339.003-29.584 13.248-29.587 29.587z" fill="#575b6d"/><path d="m264.158 367.394h-11.028v-60.847c0-1.536 1.245-2.781 2.781-2.781h5.467c1.536 0 2.781 1.245 2.781 2.781v60.847z" fill="#eeefee"/><path d="m272.412 373.471h-27.536c-2.093 0-3.789-1.696-3.789-3.789v-6.184c0-2.093 1.696-3.789 3.789-3.789h27.536c2.092 0 3.789 1.696 3.789 3.789v6.184c0 2.093-1.697 3.789-3.789 3.789z" fill="#575b6d"/></g></svg>